<svg data-name="图层 1" xmlns="http://www.w3.org/2000/svg" xmlns:xlink="http://www.w3.org/1999/xlink" viewBox="0 0 500 500"><defs><linearGradient id="a" x1="284.55" y1="4.38" x2="247.2" y2="277.38" gradientUnits="userSpaceOnUse"><stop offset="0" stop-color="#d0ff7e"/><stop offset="1" stop-color="#00c385"/></linearGradient><linearGradient id="b" x1="283.64" y1="4.25" x2="216.39" y2="495.76" xlink:href="#a"/><linearGradient id="c" x1="257.84" y1="81.42" x2="231.33" y2="275.2" xlink:href="#a"/></defs><path d="M301.21 242.12a37.69 37.69 0 01-18.83-32.63v-181A27.06 27.06 0 00268.85 5a37.67 37.67 0 00-33.47-2A37.73 37.73 0 00221 32.55v212.31c0 1 .05 2 .13 3a37.48 37.48 0 0014.21 26.58 37.67 37.67 0 0033.47-2.05L299 255s.08 0 .12-.08l12.16-7-.09-.05z" opacity=".34" fill="url(#a)"/><path d="M471.19 138.75a37.76 37.76 0 00-18.49-27.57l-7-4.06a37.66 37.66 0 00-21.94 4.88l-30.26 17.5-.22.13-15.62 9 13.66 7.88a37.77 37.77 0 0118.87 32.66v141.58a37.67 37.67 0 01-18.87 32.66l-10 5.77-99 57.15-13.53 7.83a37.79 37.79 0 01-37.71 0L221 418.34l-112.4-64.93a37.72 37.72 0 01-18.83-32.66V179.24a37.82 37.82 0 0118.83-32.66l13.65-7.88 98.79-57 10.1-5.82 34.32-19a32.66 32.66 0 0016.83-28.58A26.86 26.86 0 00268.85 5a37.67 37.67 0 00-33.47-2 33.13 33.13 0 00-4.24 2L89.77 86.66 47.3 111.18a37.76 37.76 0 00-18.49 27.57 34.47 34.47 0 00-.38 5.09v212.31A37.66 37.66 0 0047.3 388.8L231.14 495a37.76 37.76 0 0037.71 0L315 468.33l137.7-79.53a35.3 35.3 0 004.49-3 37.67 37.67 0 0014.38-29.62V143.84a34.47 34.47 0 00-.38-5.09z" fill="url(#b)"/><path d="M452.7 111.18l-7-4.06a37.66 37.66 0 00-21.94 4.88l-30.26 17.5-.22.13c-.64.43-1.28.81-1.92 1.2l-13.66 7.87-95.32 55.05-13.53 7.83a13.25 13.25 0 01-1.71.9l-.51.26a37.79 37.79 0 01-35.49-1.16L221 195.76l-98.75-57.06-13.65-7.87a37.72 37.72 0 01-18.83-32.66V86.66L47.3 111.18a37.76 37.76 0 00-18.49 27.57 37.52 37.52 0 0018.49 27.48l42.47 24.52L221 266.56l10.1 5.82a31.79 31.79 0 004.24 2.05 37.67 37.67 0 0033.47-2.05L299 255s.08 0 .12-.08l12.16-7 99-57.15 15.11-8.77a6.42 6.42 0 01.6-.34l26.71-15.45a37.52 37.52 0 0018.49-27.48 37.76 37.76 0 00-18.49-27.55z" fill="url(#c)"/></svg>