<svg class="icon" viewBox="0 0 1385 1024" xmlns="http://www.w3.org/2000/svg" fill="currentColor" stroke="currentColor"><defs><style/></defs><path d="M843.294 561.544l178.086 178.085 49.543-49.543L892.838 512l178.085-178.086-49.543-49.543-178.086 178.085-178.086-178.085-49.543 49.543L793.75 512 615.665 690.086l49.543 49.543 178.086-178.085zm299.008-471.191c84.21 0 152.757 67.554 152.757 150.588V783.06c0 83.034-68.518 150.588-152.757 150.588H572.235a154.564 154.564 0 0 1-110.2-46.32l-354.123-353.16-.573-.603-.572-.572a29.064 29.064 0 0 1-8.855-21.022c0-5.572 1.536-13.764 8.855-21.022l.572-.572.573-.603 354.123-353.13a154.504 154.504 0 0 1 110.2-46.35h570.067v.06zm0-90.353H596.6a244.134 244.134 0 0 0-174.953 73.668L43.16 426.828a119.657 119.657 0 0 0 0 170.375l378.488 353.16A244.134 244.134 0 0 0 596.6 1024.03h545.702c134.265 0 243.11-107.881 243.11-240.941V240.97C1385.412 107.881 1276.567 0 1142.302 0z"/></svg>