<svg  viewBox="0 0 37 37" fill="currentColor" stroke="currentColor" xmlns="http://www.w3.org/2000/svg"><g stroke="none" fill="none" fill-rule="evenodd"><path d="M35 18.5C35 9.387 27.613 2 18.5 2S2 9.387 2 18.5 9.387 35 18.5 35 35 27.613 35 18.5z" stroke="#4E4E4E" stroke-width="2.6" fill="#4E4E4E" stroke-linecap="round" stroke-linejoin="round"/><g fill="#FFF"><path d="M18.103 13.793c-.61 0-1.103.494-1.103 1.104v12a1.103 1.103 0 1 0 2.207 0v-12c0-.61-.493-1.104-1.104-1.104M18.103 9.791c-.143 0-.286.033-.419.088A1.108 1.108 0 0 0 17 10.894c0 .298.12.574.32.784.11.1.22.187.364.243.408.165.894.066 1.203-.243.199-.21.32-.486.32-.784 0-.143-.033-.286-.088-.419a1.09 1.09 0 0 0-.232-.353 1.122 1.122 0 0 0-.784-.331"/></g></g></svg>