<svg fill="currentColor" stroke="currentColor" viewBox="0 0 1416 1024" xmlns="http://www.w3.org/2000/svg" width="276.563" height="200"><defs><style/></defs><path d="M0 0h1416.17v849.702H0V0zm87.149 87.149v675.404H1329.02V87.15H87.15zm130.723 108.936H326.81v108.936H217.872V196.085zm174.298 0h108.936v108.936H392.17V196.085zm174.298 0h108.936v108.936H566.468V196.085zm174.298 0h108.936v108.936H740.766V196.085zm174.298 0H1024v108.936H915.064V196.085zm174.298 0h108.936v108.936h-108.936V196.085zm-784.34 174.298h108.935v108.936H305.021V370.383zm174.297 0h108.936v108.936H479.32V370.383zm174.298 0h108.936v108.936H653.617V370.383zm174.298 0H936.85v108.936H827.915V370.383zm174.298 0h108.936v108.936h-108.936V370.383zm-784.34 174.298h108.936v108.936H217.872V544.681zm871.489 0h108.936v108.936h-108.936V544.681zm-697.192 0H1024v108.936H392.17V544.681zm196.085 348.596h261.447L718.98 1024 588.255 893.277z"/></svg>