<svg  viewBox="0 0 37 37" fill="currentColor" stroke="currentColor" xmlns="http://www.w3.org/2000/svg"><g stroke="none" fill="none" fill-rule="evenodd"><g fill="#4E4E4E"><path d="M18.816 27.779c-.144 0-.287-.022-.42-.078a1.17 1.17 0 0 1-.364-.242c-.044-.056-.099-.11-.132-.166a.773.773 0 0 1-.1-.188.77.77 0 0 1-.066-.21c-.01-.076-.022-.143-.022-.22 0-.066.011-.143.022-.21a.666.666 0 0 1 .067-.21.613.613 0 0 1 .099-.187c.033-.066.088-.121.132-.165.11-.11.221-.188.364-.243a1.126 1.126 0 0 1 1.203.243c.044.044.088.099.133.165a.638.638 0 0 1 .099.188.637.637 0 0 1 .065.21c.012.066.023.143.023.21 0 .297-.121.573-.32.783-.21.21-.485.32-.783.32M18.816 24.14c-.61 0-1.104-.494-1.104-1.103v-1.822c0-1.59.945-3.037 2.352-3.6 2.242-.896 2.239-2.264 2.04-3.215a3.337 3.337 0 0 0-2.552-2.552c-1.04-.218-2.054.022-2.857.675a3.355 3.355 0 0 0-1.245 2.613 1.102 1.102 0 1 1-2.207 0c0-1.685.75-3.262 2.06-4.326a5.599 5.599 0 0 1 4.699-1.123c2.11.44 3.822 2.153 4.261 4.263.536 2.559-.697 4.643-3.38 5.714-.577.231-.964.853-.964 1.55v1.823c0 .609-.493 1.103-1.103 1.103"/></g><path d="M35 18.5C35 27.613 27.613 35 18.5 35S2 27.613 2 18.5 9.387 2 18.5 2 35 9.387 35 18.5z" stroke="#4E4E4E" stroke-width="2.6" stroke-linecap="round" stroke-linejoin="round"/></g></svg>