<?xml version="1.0" encoding="UTF-8"?>
<svg width="194px" height="200px" viewBox="0 0 194 200" version="1.1" xmlns="http://www.w3.org/2000/svg" xmlns:xlink="http://www.w3.org/1999/xlink">
    <!-- Generator: Sketch 52.5 (67469) - http://www.bohemiancoding.com/sketch -->
    <title>Group 19 Copy</title>
    <desc>Created with Sketch.</desc>
    <defs>
        <path d="M84.4353945,169.087625 L27.4421019,134.05772 C26.849088,133.693234 26.4882342,133.04664 26.4893693,132.35057 L26.5748756,79.9130792 C26.5766767,78.8085112 27.4735662,77.914542 28.5781342,77.9163431 C28.9396046,77.9169326 29.294158,78.0154748 29.604092,78.2014912 L80.8721191,108.971559 C84.4784701,111.074189 88.6634472,111.063263 92.0572159,109.052896 L143.373276,78.26907 C144.320484,77.7008525 145.548979,78.0080849 146.117197,78.9552928 C146.302585,79.2643309 146.401027,79.6177186 146.402116,79.9780962 L146.560415,132.34883 C146.562522,133.045842 146.201596,133.693676 145.607801,134.058695 L88.6246761,169.087488 C87.3399275,169.877252 85.7201948,169.877305 84.4353945,169.087625 Z M172.844779,52.1659256 C172.823151,47.8857938 170.46134,43.928664 166.677828,41.8384001 C162.904409,39.7509822 158.262975,39.8335113 154.478021,42.0973709 L94.9944087,75.8984092 L95.2106918,11.837636 C95.1933891,7.57457921 92.8416712,3.6274098 89.0740201,1.53572306 C85.2977177,-0.56023243 80.6476316,-0.493355371 77.0789609,1.62963553 L7.35939197,41.2493129 C6.99171075,41.4086795 6.62258764,41.5666232 6.26788341,41.7629856 C2.48148777,43.8632098 0.126886068,47.8303001 0.126886068,52.1033173 L0,138.438755 C0,140.112104 0.36335556,141.782608 1.0540195,143.282361 C1.98836237,145.371202 3.5210884,147.14131 5.57145192,148.463199 L77.7162751,193.807268 L80.0881794,195.302753 C82.0448203,196.525038 84.2883967,197.138315 86.531973,197.138315 C88.7827589,197.138315 91.0349866,196.522192 93.0060463,195.29137 L167.524216,148.450393 C170.446921,146.602025 172.422306,143.595403 172.93706,140.224515 C173.029341,139.631159 173.076923,139.026419 173.076923,138.425949 L172.844779,52.1659256 Z" id="path-1"></path>
        <linearGradient x1="105.598267%" y1="43.4861918%" x2="11.1742495%" y2="76.0897248%" id="linearGradient-3">
            <stop stop-color="#B4EC51" offset="0%"></stop>
            <stop stop-color="#13CFA0" offset="100%"></stop>
        </linearGradient>
        <linearGradient x1="60.659754%" y1="-26.0215222%" x2="44.8151117%" y2="50%" id="linearGradient-4">
            <stop stop-color="#D0FF7E" offset="0%"></stop>
            <stop stop-color="#00C385" offset="100%"></stop>
        </linearGradient>
    </defs>
    <g id="Page-1" stroke="none" stroke-width="1" fill="none" fill-rule="evenodd">
        <g id="Artboard" transform="translate(-3.000000, 0.000000)">
            <g id="Group-19-Copy" transform="translate(5.000000, 0.000000)">
                <path d="M85.4766649,171.087621 L26.9617757,134.834311 C26.6670039,134.651683 26.4878837,134.329382 26.4884447,133.982622 L26.5777616,78.7693438 C26.578655,78.2170598 27.027094,77.7700693 27.579378,77.7709628 C27.7613154,77.7712571 27.9397252,77.8211811 28.0953917,77.9153577 L80.8721191,109.844729 C84.4784701,111.964207 88.6634472,111.953193 92.0572159,109.926718 L144.879335,77.9855221 C145.351934,77.6997446 145.966719,77.8511933 146.252497,78.3237921 C146.346359,78.4790148 146.396232,78.6568451 146.396776,78.8382394 L146.562132,133.981761 C146.563173,134.328989 146.384018,134.651902 146.08886,134.834796 L87.5834471,171.087551 C86.9381174,171.487429 86.1220209,171.487455 85.4766649,171.087621 Z M172.844779,52.5839218 C172.823151,48.2694941 170.46134,44.2806565 166.677828,42.1736437 C162.904409,40.0694996 158.262975,40.1526901 154.478021,42.4346896 L94.9944087,76.5065695 L95.2106918,11.9324889 C95.1933891,7.63527295 92.8416712,3.65647559 89.0740201,1.54802853 C85.2977177,-0.564721472 80.6476316,-0.497308539 77.0789609,1.6426935 L7.35939197,41.5798362 C6.99171075,41.7404798 6.62258764,41.8996891 6.26788341,42.0976249 C2.48148777,44.2146779 0.126886068,48.2135557 0.126886068,52.5208118 L0,139.54804 C0,141.234797 0.36335556,142.918686 1.0540195,144.430457 C1.98836237,146.536036 3.5210884,148.320327 5.57145192,149.652808 L77.7162751,195.360211 L80.0881794,196.867679 C82.0448203,198.099758 84.2883967,198.717949 86.531973,198.717949 C88.7827589,198.717949 91.0349866,198.096889 93.0060463,196.856204 L167.524216,149.639899 C170.446921,147.77672 172.422306,144.746007 172.93706,141.348108 C173.029341,140.749998 173.076923,140.140413 173.076923,139.535131 L172.844779,52.5839218 Z" id="Fill-1" fill="url(#linearGradient-4)"></path>
            </g>
        </g>
    </g>
</svg>