<?xml version="1.0" standalone="no"?>
<!DOCTYPE svg PUBLIC "-//W3C//DTD SVG 1.1//EN" "http://www.w3.org/Graphics/SVG/1.1/DTD/svg11.dtd" >
<svg xmlns="http://www.w3.org/2000/svg">
<defs>
  <font id="zaicon" horiz-adv-x="1000">
    <font-face font-family="zaicon"
      units-per-em="1000" ascent="1000"
      descent="0" />
    <missing-glyph horiz-adv-x="0" />
    <glyph glyph-name="arrow-down"
      unicode="&#xEA01;"
      horiz-adv-x="1000" d="M494.094285 266.573799C486.75633 268.2729959999999 479.789391 271.981769 474.071043 277.700117L140.1595075 611.6116524C123.88766196 627.8834978 123.88766196 654.2653720000001 140.1595075 670.5372175C156.4313529 686.80906294 182.8132271 686.80906294 199.0850725 670.5372175L503.659111 365.9631790000001L808.185601 670.4896696999999C824.457446 686.7615151699999 850.839321 686.7615151699999 867.111166 670.4896696999999C883.383012 654.2178242 883.383012 627.8359501 867.111166 611.5641046000001L533.199631 277.6525690000001C522.5933709999999 267.04631 507.691715 263.353386 494.094285 266.573799L494.094285 266.573799z" />
    <glyph glyph-name="arrow-left"
      unicode="&#xEA02;"
      horiz-adv-x="1000" d="M296.11424294 491.964781C292.89382996 505.562211 296.58675317 520.4638669999999 307.1930126 531.0701260000001L641.104548 864.9816619000001C657.376394 881.25350738 683.758268 881.25350738 700.030113 864.9816619000001C716.301959 848.7098164 716.301959 822.3279423 700.030113 806.0560968L395.503623 501.529606L700.077661 196.955568C716.349506 180.683723 716.349506 154.301849 700.077661 138.030003C683.8058149999999 121.758158 657.423941 121.758158 641.152096 138.030003L307.2405603000001 471.9415389999999C301.52221208 477.659887 297.81343962 484.6268259999999 296.11424294 491.964781L296.11424294 491.964781z" />
    <glyph glyph-name="arrow-right"
      unicode="&#xEA03;"
      horiz-adv-x="1000" d="M711.156431 491.964781C709.457234 484.6268259999999 705.748461 477.659887 700.030113 471.9415389999999L366.1185777 138.030003C349.8467322 121.758158 323.464858 121.758158 307.1930126 138.030003C290.92116706 154.301849 290.92116706 180.683723 307.1930126 196.955568L611.767051 501.529606L307.2405603000001 806.0560968C290.96871484 822.3279423 290.96871484 848.7098164 307.2405603000001 864.9816619000001C323.5124058 881.25350738 349.8942799 881.25350738 366.1661254 864.9816619000001L700.077661 531.0701260000001C710.68392 520.4638669999999 714.376844 505.562211 711.156431 491.964781L711.156431 491.964781z" />
    <glyph glyph-name="arrow-up"
      unicode="&#xEA04;"
      horiz-adv-x="1000" d="M513.176389 714.9493204C520.5143439999999 713.2501237199999 527.481282 709.54135126 533.199631 703.823003L867.111166 369.911467C883.383012 353.6396219999999 883.383012 327.257748 867.111166 310.985902C850.839321 294.7140570000001 824.457446 294.7140570000001 808.185601 310.985902L503.611563 615.55994L199.0850725 311.03345C182.8132271 294.7616049999999 156.4313529 294.7616049999999 140.1595075 311.03345C123.88766196 327.305296 123.88766196 353.6871699999999 140.1595075 369.959015L474.071043 703.8705508C484.677302 714.47681017 499.578958 718.16973337 513.176389 714.9493204L513.176389 714.9493204z" />
    <glyph glyph-name="close"
      unicode="&#xEA05;"
      horiz-adv-x="1000" d="M560.148859 498.776706L815.492974 243.432591C831.76482 227.160745 831.76482 200.778871 815.492974 184.507026C799.221129 168.23518 772.839255 168.23518 756.567409 184.507026L501.223294 439.851141L245.8791782 184.507026C229.6073327 168.23518 203.2254586 168.23518 186.9536131 184.507026C170.68176763 200.778871 170.68176763 227.160745 186.9536131 243.432591L442.297729 498.776706L186.9536131 754.1208217999999C170.68176763 770.3926673 170.68176763 796.7745414 186.9536131 813.0463869C203.2254586 829.31823237 229.6073327 829.31823237 245.8791782 813.0463869L501.223294 557.702271L756.567409 813.0463869C772.839255 829.31823237 799.221129 829.31823237 815.492974 813.0463869C831.76482 796.7745414 831.76482 770.3926673 815.492974 754.1208217999999L560.148859 498.776706z" />
    <glyph glyph-name="close-circle"
      unicode="&#xEA06;"
      horiz-adv-x="1000" d="M500 539.283710380189L637.4929849164479 676.776695296637C648.3408818735786 687.6245922537676 665.9287983395062 687.6245922537676 676.7766952966368 676.776695296637L676.8781481491744 676.6752424440995C687.6134284519062 665.82737377124 687.5225850295136 648.3307744892484 676.6749794003767 637.595231142794L538.4678534044831 500.815856975706L676.776695296637 362.5070150835523C687.6245922537676 351.6591181264215 687.6245922537676 334.0712016604939 676.776695296637 323.2233047033632C665.9287983395063 312.3754077462326 648.3408818735786 312.3754077462325 637.4929849164479 323.2233047033632L498.9801787803676 461.7361108394434L359.8504601614683 324.0436758487602C349.4401512861275 313.7409108437701 332.6621421994488 313.7844672072775 322.3054659592474 324.141143447479C311.9644768829866 334.4821325237397 311.9644768829866 351.2481872631756 322.3054652521406 361.5891756323296L460.716289619811 500L323.2233047033631 637.4929849164479C312.3754077462325 648.3408818735786 312.3754077462325 665.9287983395063 323.2233047033631 676.776695296637C334.0712016604938 687.6245922537676 351.6591181264214 687.6245922537676 362.5070150835521 676.776695296637L500 539.283710380189zM190.6407832308855 190.6407832308855C361.4951608360235 19.7864056257474 638.5048391639766 19.7864056257474 809.3592167691146 190.6407832308855C980.2135943742524 361.4951608360234 980.2135943742524 638.5048391639767 809.3592167691145 809.3592167691146C638.5048391639766 980.2135943742524 361.4951608360233 980.2135943742524 190.6407832308855 809.3592167691145C19.7864056257475 638.5048391639766 19.7864056257476 361.4951608360233 190.6407832308855 190.6407832308855zM146.4466094067263 146.4466094067264C79.7896288006171 213.1035900128354 35.8874582572827 293.8985972451701 14.7400977767232 379.1789857302172C-20.5243243211062 521.3888692661399 7.4865869400808 676.0714555601954 98.7728330452086 798.466936204253C113.1044817008683 817.6826351785999 128.9957401344874 836.1025213210349 146.4466094067262 853.5533905932738C341.7087553421848 1048.8155365287323 658.2912446578152 1048.8155365287323 853.5533905932737 853.5533905932739C1048.8155365287323 658.2912446578152 1048.8155365287323 341.7087553421849 853.5533905932738 146.4466094067264C658.2912446578152 -48.8155365287323 341.7087553421848 -48.8155365287323 146.4466094067263 146.4466094067264z" />
    <glyph glyph-name="close-circle-fill"
      unicode="&#xEA07;"
      horiz-adv-x="1000" d="M500 1000C224.320848 1000 0 775.71371 0 500C0 224.28629 224.28629 0 500 0C775.679152 0 1000 224.28629 1000 500C1000 775.71371 775.71371 1000 500 1000zM703.964521 345.999962C717.893141 332.000308 717.856663 309.428456 703.893487 295.499837C696.930137 288.5710450000001 687.822298 285.0711320000001 678.679902 285.0711320000001C669.501028 285.0711320000001 660.358632 288.571046 653.393362 295.570873L499.821453 449.607388L345.750379 297.1777990000001C338.78703 290.320042 329.713749 286.8566060000001 320.642387 286.8566060000001C311.428955 286.8566060000001 302.250083 290.3929970000001 295.250254 297.463859C281.39267 311.499991 281.500182 334.071843 295.536315 347.963984L449.42884 500.178548L296.106515 654.000039C282.177895 667.965136 282.214373 690.571545 296.177549 704.500164C310.142646 718.465261 332.712577 718.392306 346.677674 704.429129L500.213105 550.4290920000001L654.284179 702.856761C668.283833 716.7489029999999 690.926719 716.6068339999999 704.784304 702.570701C718.676445 688.5345689999999 718.534376 665.928161 704.498243 652.0705760000001L550.607637 499.85793L703.964521 345.999962z" />
    <glyph glyph-name="delete-key"
      unicode="&#xEA08;"
      horiz-adv-x="1000" d="M606.557043 464.458618L735.803055 335.2126070000001L771.759369 371.168921L642.513358 500.414932L771.759369 629.660943L735.803055 665.617258L606.557043 536.371247L477.311032 665.617258L441.354717 629.660943L570.600728 500.414932L441.354717 371.168921L477.311032 335.2126070000001L606.557043 464.458618zM823.562692 806.4261209C884.677498 806.4261209 934.426174 757.398756 934.426174 697.136411L934.426174 303.693453C934.426174 243.431107 884.699356 194.403743 823.562692 194.403743L409.835565 194.403743C379.746429 194.429623 350.929128 206.542497 329.857355 228.021258L72.8516718 484.327487L72.4363711 484.7646460000001L72.0210704 485.1799470000001C67.8893578 489.177317 65.5682658 494.687937 65.59461 500.43679C65.59461 504.48051 66.7095907 510.42587 72.0210704 515.693633L72.4363711 516.108935L72.8516718 516.546094L329.857355 772.8304636C350.92267 794.3214069 379.742253 806.4431175 409.835565 806.4698366L823.562692 806.4698366L823.562692 806.4261209zM823.562692 871.9999999999992L427.51864 871.9999999999992C379.714972 872.0369291876 333.924676 852.7559746 300.545855 818.5354204L25.8570965 562.229192C9.31333457 545.910388 0 523.641891 0 500.404003C0 477.166115 9.31333457 454.897618 25.8570965 438.578814L300.545855 182.2725860000001C333.924676 148.0520310000001 379.714972 128.771077 427.51864 128.808006L823.562692 128.808006C921.005398 128.808006 1000 207.103208 1000 303.671596L1000 697.114553C1000 793.7047983 921.005397 871.9999999999992 823.562692 871.9999999999992z" />
    <glyph glyph-name="empty"
      unicode="&#xEA09;"
      horiz-adv-x="1000" d="" />
    <glyph glyph-name="info"
      unicode="&#xEA0A;"
      horiz-adv-x="1000" d="M444.455198 181.526436C444.271769 173.319612 450.131449 166.666667 458.73295 166.666667L541.267159 166.666667C549.335972 166.666667 555.737588 172.9058160000001 555.544911 181.526436L543.792058 707.3624540000001C543.608629 715.569277 536.639484 722.222223 529.106901 722.222223L470.893207 722.222223C462.966248 722.222223 456.400728 715.983073 456.20805 707.3624540000001L444.455198 181.526436zM500 888.8888890000001C469.317514 888.8888890000001 444.444444 864.0158200000001 444.444444 833.333334C444.444444 802.650848 469.317514 777.777778 500 777.777778C530.682486 777.777778 555.555556 802.650848 555.555556 833.333334C555.555556 864.0158200000001 530.682486 888.8888890000001 500 888.8888890000001z" />
    <glyph glyph-name="info-circle"
      unicode="&#xEA0B;"
      horiz-adv-x="1000" d="M499.937508 62.617173C741.531887 62.617173 937.382827 258.468113 937.382827 500.062492C937.382827 741.656871 741.531887 937.5078115 499.937508 937.5078115C258.343129 937.5078115 62.4921885 741.656871 62.4921885 500.062492C62.4921885 258.468113 258.343129 62.617173 499.937508 62.617173zM499.937508 0.124984C223.829646 0.124984 0 223.954631 0 500.062492C0 776.170354 223.829646 1000 499.937508 1000C776.045369 1000 999.875016 776.170354 999.875016 500.062492C999.875016 223.954631 776.045369 0.124984 499.937508 0.124984zM456.326035 208.657236C456.182393 202.19517 460.771058 196.95663 467.50682 196.95663L532.138652 196.95663C538.45727 196.95663 543.470321 201.869346 543.319437 208.657236L534.115879 622.7013440000001C533.972237 629.16341 528.514759 634.4019499999999 522.616058 634.4019499999999L477.029413 634.4019499999999C470.821879 634.4019499999999 465.680477 629.489234 465.529593 622.7013440000001L456.326035 208.657236zM500.062117 687.723035C475.902679 687.723035 456.317585 707.308129 456.317585 731.4675669999999C456.317585 755.6270039999999 475.902679 775.212098 500.062117 775.212098C524.221555 775.212098 543.806649 755.6270039999999 543.806649 731.4675669999999C543.806649 707.308129 524.221555 687.723035 500.062117 687.723035z" />
    <glyph glyph-name="info-circle-fill"
      unicode="&#xEA0C;"
      horiz-adv-x="1000" d="M500 1000C775.71371 1000 1000 775.71371 1000 500C1000 224.28629 775.679152 0 500 0C224.28629 0 0 224.28629 0 500C0 775.71371 224.320848 1000 500 1000zM522.616058 634.4019499999999L477.029413 634.4019499999999C470.821879 634.4019499999999 465.680477 629.489234 465.529593 622.7013440000001C462.904927 504.624459 460.936427 416.066796 459.624094 357.0283530000001C458.891192 324.0569940000001 457.791839 274.599955 456.326035 208.657236C456.182393 202.19517 460.771058 196.95663 467.50682 196.95663L532.138652 196.95663C538.45727 196.95663 543.470321 201.869346 543.319437 208.657236C542.065649 265.061889 541.125308 307.365379 540.498414 335.5677060000001C540.039714 356.20344 539.50684 380.176037 538.899793 407.485496C538.05313 445.574663 536.458492 517.313279 534.115879 622.7013440000001C533.972237 629.16341 528.514759 634.4019499999999 522.616058 634.4019499999999zM500.062117 775.212098C475.902679 775.212098 456.317585 755.6270039999999 456.317585 731.4675669999999C456.317585 707.308129 475.902679 687.723035 500.062117 687.723035C524.221555 687.723035 543.806649 707.308129 543.806649 731.4675669999999C543.806649 755.6270039999999 524.221555 775.212098 500.062117 775.212098z" />
    <glyph glyph-name="keyboard"
      unicode="&#xEA0D;"
      horiz-adv-x="1000" d="M0 862.0000000000009L1000 862.0000000000009L1000 261.463293L0 261.463293L0 862.0000000000009zM61.5384614 800.4064917000001L61.5384614 323.056802L938.461539 323.056802L938.461539 800.4064917000001L61.5384614 800.4064917000001zM153.846154 723.414606L230.769231 723.414606L230.769231 646.42272L153.846154 646.42272L153.846154 723.414606zM276.923077 723.414606L353.846154 723.414606L353.846154 646.42272L276.923077 646.42272L276.923077 723.414606zM400 723.414606L476.923077 723.414606L476.923077 646.42272L400 646.42272L400 723.414606zM523.076923 723.414606L600 723.414606L600 646.42272L523.076923 646.42272L523.076923 723.414606L523.076923 723.414606zM646.153846 723.414606L723.076923 723.414606L723.076923 646.42272L646.153846 646.42272L646.153846 723.414606L646.153846 723.414606zM769.230769 723.414606L846.153846 723.414606L846.153846 646.42272L769.230769 646.42272L769.230769 723.414606zM215.384616 600.2275890000001L292.307692 600.2275890000001L292.307692 523.2357039999999L215.384616 523.2357039999999L215.384616 600.2275890000001zM338.461538 600.2275890000001L415.384615 600.2275890000001L415.384615 523.2357039999999L338.461538 523.2357039999999L338.461538 600.2275890000001L338.461538 600.2275890000001zM461.538461 600.2275890000001L538.461538 600.2275890000001L538.461538 523.2357039999999L461.538461 523.2357039999999L461.538461 600.2275890000001L461.538461 600.2275890000001zM584.615385 600.2275890000001L661.538462 600.2275890000001L661.538462 523.2357039999999L584.615385 523.2357039999999L584.615385 600.2275890000001L584.615385 600.2275890000001zM707.692308 600.2275890000001L784.615384 600.2275890000001L784.615384 523.2357039999999L707.692308 523.2357039999999L707.692308 600.2275890000001zM153.846154 477.040573L230.769231 477.040573L230.769231 400.048687L153.846154 400.048687L153.846154 477.040573L153.846154 477.040573zM769.230769 477.040573L846.153846 477.040573L846.153846 400.048687L769.230769 400.048687L769.230769 477.040573L769.230769 477.040573zM276.923077 477.040573L723.076923 477.040573L723.076923 400.048687L276.923077 400.048687L276.923077 477.040573L276.923077 477.040573zM415.384615 230.666539L600 230.666539L507.692307 138.2762760000001L415.384615 230.666539L415.384615 230.666539z" />
    <glyph glyph-name="minus"
      unicode="&#xEA0E;"
      horiz-adv-x="1000" d="M537.5 462.5L462.5 462.5L137.5 462.5C116.7893219 462.5 100 479.2893219 100 500C100 520.7106781 116.7893219 537.5 137.5 537.5L862.5 537.5C883.210678 537.5 900 520.7106781 900 500C900 479.2893219 883.210678 462.5 862.5 462.5L537.5 462.5z" />
    <glyph glyph-name="plus"
      unicode="&#xEA0F;"
      horiz-adv-x="1000" d="M537.5 462.5L537.5 137.5C537.5 116.789322 520.7106779999999 100 500 100C479.289322 100 462.5 116.789322 462.5 137.5L462.5 462.5L137.5 462.5C116.7893219 462.5 100 479.2893220000001 100 500C100 520.7106779999999 116.7893219 537.5 137.5 537.5L462.5 537.5L462.5 862.5C462.5 883.2106781 479.289322 900 500 900C520.7106779999999 900 537.5 883.2106781 537.5 862.5L537.5 537.5L862.5 537.5C883.210678 537.5 900 520.7106779999999 900 500C900 479.2893220000001 883.210678 462.5 862.5 462.5L537.5 462.5z" />
    <glyph glyph-name="plus-circle"
      unicode="&#xEA10;"
      horiz-adv-x="1000" d="M472.222222 527.777778L472.222222 722.222222C472.222222 737.563465 484.658757 750 500 750L500.143476 750C515.405067 749.920388 527.712795 737.484188 527.633555 722.222597L526.623982 527.777778L722.222222 527.777778C737.563465 527.777778 750 515.3412430000001 750 500C750 484.658757 737.563465 472.222222 722.222222 472.222222L526.335533 472.222222L525.31922 276.4794000000001C525.243175 261.833045 513.348532 250 498.70198 250C484.077613 250 472.222222 261.8553910000001 472.222222 276.479757L472.222222 472.222222L277.777778 472.222222C262.436535 472.222222 250 484.658757 250 500C250 515.3412430000001 262.436535 527.777778 277.777778 527.777778L472.222222 527.777778zM500 62.5C741.624578 62.5 937.5 258.375422 937.5 500C937.5 741.6245779999999 741.624578 937.5 500 937.5C258.375422 937.5 62.5 741.6245779999999 62.5 500C62.5 258.375422 258.375422 62.5 500 62.5zM500 0C223.857625 0 0 223.857625 0 500C0 776.142375 223.857625 1000 500 1000C776.142375 1000 1000 776.142375 1000 500C1000 223.857625 776.142375 0 500 0z" />
    <glyph glyph-name="search"
      unicode="&#xEA11;"
      horiz-adv-x="1000" d="M987.879073 63.829485L987.891394 63.839341L761.090558 290.640179C817.200563 362.6672 850.636399 453.2234110000001 850.636399 551.5988950000001C850.636399 786.3299010000001 660.34933 976.616969773 425.6183250000001 976.616969773C190.88732 976.616969773 0.602715365 786.3299010000001 0.602715365 551.5988950000001C0.602715365 316.86789 190.889785 126.580821 425.62079 126.580821C535.341985 126.580821 635.348846 168.16615 710.754445 236.427696L935.618329 11.563812L935.650365 11.595848C942.373019 4.644013 951.776848 0.304353 962.208296 0.304353C982.625152 0.304353 999.173037 16.852233 999.173037 37.269089C999.173037 47.290387 995.100507 56.881296 987.879073 63.829485L987.879073 63.829485zM424.255559 203.053467C231.31935 203.053467 74.9166209 359.45866 74.9166209 552.3924059999999C74.9166209 745.326151 231.319349 901.7313426 424.255559 901.7313426C617.189304 901.7313426 773.596961 745.32615 773.596961 552.3924059999999C773.596961 359.458661 617.189305 203.053467 424.255559 203.053467L424.255559 203.053467z" />
    <glyph glyph-name="star"
      unicode="&#xEA12;"
      horiz-adv-x="1000" d="M726.275 379.251181L911 586.3025789999999L640.036624 645.067599L500.5 885L360.963376 645.067599L90 586.3025789999999L274.725 379.251181L246.797048 103L500.5 214.967599L754.202952 103L726.275 379.251181zM499.996931 147.920699L222.445841 25.623437C206.875711 18.762775 188.691502 25.822154 181.830274 41.391002C179.681651 46.266455 178.834332 51.615773 179.371072 56.916511L209.924259 358.65347L7.83506542 584.806566C-3.50178491 597.493359 -2.40659275 616.967613 10.2812456 628.303529C14.2544976 631.853421 19.0805848 634.312232 24.2881631 635.439822L320.7221610000001 699.626257L473.37526 961.6938184C481.938832 976.3953502 500.799907 981.3717218 515.50265 972.8088553C520.106878 970.1273563 523.936882 966.2976673 526.618602 961.6938184L679.271702 699.626257L975.705699 635.439822C992.335128 631.839075 1002.89672 615.440388 999.295678 598.812329C998.167995 593.60518 995.708981 588.77949 992.158797 584.806566L790.069603 358.65347L820.62279 56.916511C822.33677 39.989595 810.003119 24.878277 793.074809 23.164438C787.773634 22.627742 782.423875 23.474991 777.548021 25.623437L499.996931 147.920699z" />
    <glyph glyph-name="star-fill"
      unicode="&#xEA13;"
      horiz-adv-x="1000" d="M500.122073 147.687189L222.593847 25.3899280000001C207.024999 18.529265 188.842288 25.588644 181.981626 41.1574920000001C179.833179 46.032945 178.98593 51.382263 179.522627 56.683001L210.073296 358.419961L8.00075021 584.573056C-3.33516621 597.259849 -2.24006427 616.734103 10.4467289 628.070019C14.4196535 631.619911 19.2453432 634.0787230000001 24.4524925 635.206313L320.86207 699.392748L473.502595 961.4603089C482.065461 976.1618407 500.924982 981.1382123 515.626514 972.5753458C520.230363 969.8938468 524.060052 966.0641578 526.741551 961.4603089L679.382075 699.392748L975.791653 635.206313C992.419712 631.605566 1002.98044 615.2068790000001 999.379688 598.57882C998.252099 593.37167 995.793287 588.545981 992.243395 584.573056L790.170849 358.419961L820.721519 56.683001C822.435358 39.756085 810.102723 24.644768 793.175807 22.930929C787.875069 22.394232 782.525751 23.241481 777.650298 25.3899280000001L500.122073 147.687189z" />
    <glyph glyph-name="success"
      unicode="&#xEA14;"
      horiz-adv-x="1000" d="M119.414815 475.953667C109.706936 485.647198 108.137203 500.719822 116.694275 511.507597L136.702201 536.731295C144.903391 547.070415 160.244644 549.667197 171.087956 542.429841L344.262613 426.84462C353.39744 420.74759 369.118501 421.5416400000001 377.647316 428.461061L835.247382 799.7116100000001C845.53269 808.056071 861.643951 807.34488 870.659008 798.343147L881.930792 787.088022C891.740174 777.293138 891.027073 761.744954 880.743933 751.4770120000001L389.604348 261.06331C374.323707 245.805252 349.235315 246.4728310000001 333.505413 262.179485L119.414815 475.953667z" />
    <glyph glyph-name="success-circle"
      unicode="&#xEA15;"
      horiz-adv-x="1000" d="M768.31589 689.944379L776.467805 682.054969C783.56209 675.189132 783.046365 664.2904530000001 775.609451 657.093021L420.410288 313.331878C409.359109 302.636566 391.214826 303.104513 379.838736 314.114274L225.005357 463.961753C217.984481 470.756546 216.849227 481.321875 223.037824 488.883691L237.507842 506.564533C243.43906 513.811858 254.534073 515.632102 262.376111 510.558994L387.618497 429.5382C394.224934 425.264417 405.59463 425.821015 411.762791 430.671263L742.705696 690.9036189999999C750.144177 696.752765 761.796072 696.2542470000001 768.31589 689.944379zM500 62.5C741.624578 62.5 937.5 258.375422 937.5 500C937.5 741.6245779999999 741.624578 937.5 500 937.5C258.375422 937.5 62.5 741.6245779999999 62.5 500C62.5 258.375422 258.375422 62.5 500 62.5zM500 0C223.857625 0 0 223.857625 0 500C0 776.142375 223.857625 1000 500 1000C776.142375 1000 1000 776.142375 1000 500C1000 223.857625 776.142375 0 500 0z" />
    <glyph glyph-name="volume"
      unicode="&#xEA16;"
      horiz-adv-x="1000" d="M810.150827 125.652464C801.46251 125.652464 792.774194 128.678124 785.779127 134.75717C778.413172 141.124699 773.901277 150.174819 773.249451 159.889645C772.597624 169.604471 775.860064 179.176219 782.309352 186.470697C856.562537 270.411494 925.264082 366.427108 925.264082 500.332665C925.264082 634.210464 856.562537 730.281594 782.309352 814.1391160000001C775.849763 821.439623 772.581255 831.022054 773.233145 840.748242C773.885034 850.47443 778.403071 859.534975 785.779127 865.9081590000001C801.169168 879.237915 824.410253 877.7420793 837.964543 862.5494180000001C917.769369 772.390783 999.295202 658.8875029999999 999.295202 500.304907C999.295202 341.7500680000001 917.686094 228.21903 837.992301 138.1436700000001C830.925506 130.189558 820.790723 125.642547 810.150827 125.652464L810.150827 125.652464zM684.239631 250.148007C676.772676 250.148007 669.194687 252.368664 662.67151 257.0320410000001C654.707882 262.661886 649.328345 271.244457 647.732627 280.865694C646.13691 290.4869310000001 648.457728 300.346634 654.1775 308.245921L668.861589 328.1207920000001C707.167905 379.556736 740.227922 424.025373 740.227921 500.360423C740.227921 579.4712930000001 710.915262 617.833125 673.77479 666.4099759999999C667.196097 674.98726 660.67292 683.62006 654.1775 692.502684C648.450284 700.399443 646.12495 710.261304 647.721048 719.884831C649.317145 729.508359 654.701652 738.091514 662.67151 743.716563C679.289421 755.569711 702.354929 751.8163010000001 714.357278 735.305829C720.408566 726.895094 726.654161 718.706425 732.816481 710.656547C772.843806 658.221307 814.203524 604.009542 814.203524 500.332665C814.203524 399.903497 768.680076 338.6411490000001 728.430686 284.5404180000001L714.32952 265.387259C707.112388 255.3943070000001 695.759284 250.148007 684.239631 250.148007L684.239631 250.148007zM111.0328 682.3431820000001C90.7187777 682.3895769999999 74.1838045 666.01586 74.0311198 645.702359L74.0311198 355.0184880000001C74.0311198 334.7827590000001 90.658282 318.3499050000001 111.0328 318.3499050000001L222.0656 318.3499050000001C231.864244 318.3499050000001 241.302032 314.4915150000001 248.213825 307.607482L470.334942 122.87666C474.276606 118.990512 477.829656 115.7705600000001 481.132881 113.050257L481.132881 887.6150719C477.378034 884.4748174 473.757011 881.1779273 470.279425 877.733153L248.213825 693.141123C241.274275 686.2015719999999 231.864245 682.370941 222.0656 682.370941L111.0328 682.370941L111.0328 682.3431820000001zM497.815559 28.221198C473.582651 28.221198 449.07216 44.903876 418.066251 70.996584L206.743074 245.012741L111.0328 245.012741C49.8259687 245.0405 0 294.36682 0 355.046245L0 645.702359C0 706.354026 49.8259687 755.7081049999999 111.0328 755.7081049999999L206.743074 755.7081049999999L417.955218 929.58547C449.07216 956.0667935 473.166278 972 497.621253 972C524.158091 972 555.164001 954.0682028 555.164001 903.6593115L555.164001 97.006018C555.164001 46.23627 524.269124 28.221198 497.815559 28.221198z" />
    <glyph glyph-name="waiting"
      unicode="&#xEA17;"
      horiz-adv-x="1000" d="M470.703503202 467.773186L469.72722 810.547248L531.2510617 810.547248L531.2510617 499.023218L724.6091369999999 336.913368L686.523092 283.202846z" />
    <glyph glyph-name="waiting-circle"
      unicode="&#xEA18;"
      horiz-adv-x="1000" d="M500.001 0C223.854691 0 0 223.855466 0 499.9995C0 776.145532 223.85469 1000 500.001 1000C776.14531 1000 1000 776.145533 1000 499.9995C1000 223.855466 776.14431 0 500.001 0zM500.001 936.5236553C258.920952 936.5236553 63.4764081 741.078308 63.4764081 499.9995C63.4764081 258.922691 258.920952 63.476345 500 63.476345C741.078048 63.476345 936.52559 258.922691 936.52559 499.9995C936.52559 741.078308 741.079048 936.5236553 500.001 936.5236553zM470.703503 467.773187L470.131786 668.503646L469.72722 810.547248L531.251062 810.547248L531.251062 499.023218L617.10153 427.046879L724.609137 336.913368L686.523092 283.202846L470.703503 467.773187z" />
    <glyph glyph-name="waiting-circle-fill"
      unicode="&#xEA19;"
      horiz-adv-x="1000" d="M500 1000C775.71371 1000 1000 775.71371 1000 500C1000 224.28629 775.679152 0 500 0C224.28629 0 0 224.28629 0 500C0 775.71371 224.320848 1000 500 1000zM531.251062 810.547248L469.72722 810.547248L470.703503 467.773187L686.523092 283.202846L724.609137 336.913368L531.251062 499.023218L531.251062 810.547248z" />
    <glyph glyph-name="warning"
      unicode="&#xEA1A;"
      horiz-adv-x="1000" d="M444.455198 874.02912C444.271769 882.235944 450.131449 888.8888890000001 458.73295 888.8888890000001L541.267159 888.8888890000001C549.335972 888.8888890000001 555.737588 882.64974 555.544911 874.02912L543.792058 348.193102C543.608629 339.986279 536.639484 333.3333330000001 529.106901 333.3333330000001L470.893207 333.3333330000001C462.966248 333.3333330000001 456.400728 339.5724830000001 456.20805 348.193102L444.455198 874.02912zM500 166.666667C469.317514 166.666667 444.444444 191.539736 444.444444 222.222222C444.444444 252.9047080000001 469.317514 277.777778 500 277.777778C530.682486 277.777778 555.555556 252.9047080000001 555.555556 222.222222C555.555556 191.539736 530.682486 166.666667 500 166.666667z" />
    <glyph glyph-name="warning-circle"
      unicode="&#xEA1B;"
      horiz-adv-x="1000" d="M499.937508 62.617173C741.531887 62.617173 937.382827 258.468113 937.382827 500.062492C937.382827 741.656871 741.531887 937.5078115 499.937508 937.5078115C258.343129 937.5078115 62.4921885 741.656871 62.4921885 500.062492C62.4921885 258.468113 258.343129 62.617173 499.937508 62.617173zM499.937508 0.124984C223.829646 0.124984 0 223.954631 0 500.062492C0 776.170354 223.829646 1000 499.937508 1000C776.045369 1000 999.875016 776.170354 999.875016 500.062492C999.875016 223.954631 776.045369 0.124984 499.937508 0.124984zM459.326053 772.7013440000001C459.18162 779.16341 463.795542 784.4019499999999 470.568377 784.4019499999999L535.555943 784.4019499999999C541.90934 784.4019499999999 546.949982 779.489234 546.798267 772.7013440000001L537.544053 358.657236C537.399621 352.19517 531.912104 346.95663 525.980937 346.95663L480.143383 346.95663C473.901683 346.95663 468.731982 351.869346 468.580267 358.657236L459.326053 772.7013440000001zM503.062117 215.723035C478.902679 215.723035 459.317585 235.308129 459.317585 259.4675670000001C459.317585 283.6270040000001 478.902679 303.212098 503.062117 303.212098C527.221555 303.212098 546.806649 283.6270040000001 546.806649 259.4675670000001C546.806649 235.308129 527.221555 215.723035 503.062117 215.723035z" />
  </font>
</defs>
</svg>
